<mxfile host="app.diagrams.net" agent="Mozilla/5.0 (Windows NT 10.0; Win64; x64) AppleWebKit/537.36 (KHTML, like Gecko) Chrome/141.0.0.0 Safari/537.36" version="28.2.8">
  <diagram name="Страница — 1" id="C0OeoB0pUvFxdbYCuSu7">
    <mxGraphModel dx="1223" dy="798" grid="1" gridSize="10" guides="1" tooltips="1" connect="1" arrows="1" fold="1" page="1" pageScale="1" pageWidth="827" pageHeight="1169" math="0" shadow="0">
      <root>
        <mxCell id="0" />
        <mxCell id="1" parent="0" />
        <mxCell id="RUv8rQgGCG-P_Zp7dVRf-16" value="" style="rounded=0;whiteSpace=wrap;html=1;fillColor=light-dark(#FFFFFF,#DFFFDF);gradientColor=light-dark(#B3B3B3,#FFCCE6);strokeColor=#666666;" vertex="1" parent="1">
          <mxGeometry x="240" y="370" width="478" height="290" as="geometry" />
        </mxCell>
        <mxCell id="RUv8rQgGCG-P_Zp7dVRf-20" value="" style="rounded=0;whiteSpace=wrap;html=1;fillColor=light-dark(#FFFFFF,#CCFFFF);" vertex="1" parent="1">
          <mxGeometry x="388" y="420" width="330" height="155" as="geometry" />
        </mxCell>
        <mxCell id="RUv8rQgGCG-P_Zp7dVRf-1" value="" style="rounded=0;whiteSpace=wrap;html=1;fillColor=light-dark(#F8CECC,#AC261A);strokeColor=#b85450;gradientColor=#ea6b66;" vertex="1" parent="1">
          <mxGeometry x="10" y="30" width="440" height="290" as="geometry" />
        </mxCell>
        <mxCell id="RUv8rQgGCG-P_Zp7dVRf-6" value="" style="shape=tape;whiteSpace=wrap;html=1;fillColor=#a20025;fontColor=#ffffff;strokeColor=#6F0000;" vertex="1" parent="1">
          <mxGeometry x="10" y="70" width="440" height="240" as="geometry" />
        </mxCell>
        <mxCell id="RUv8rQgGCG-P_Zp7dVRf-5" value="Actor" style="shape=umlActor;verticalLabelPosition=bottom;verticalAlign=top;html=1;outlineConnect=0;fillColor=light-dark(#FAD9D5,#FF9999);strokeColor=#ae4132;" vertex="1" parent="1">
          <mxGeometry x="330" y="30" width="110" height="260" as="geometry" />
        </mxCell>
        <mxCell id="RUv8rQgGCG-P_Zp7dVRf-11" value="&lt;h1 style=&quot;margin-top: 0px;&quot;&gt;Heading&lt;/h1&gt;&lt;p&gt;Lorem ipsum dolor sit amet, consectetur adipisicing elit, sed do eiusmod tempor incididunt ut labore et dolore magna aliqua.&lt;/p&gt;" style="text;html=1;whiteSpace=wrap;overflow=hidden;rounded=0;" vertex="1" parent="1">
          <mxGeometry x="10" y="210" width="280" height="240" as="geometry" />
        </mxCell>
        <mxCell id="RUv8rQgGCG-P_Zp7dVRf-14" value="" style="rounded=1;whiteSpace=wrap;html=1;fillColor=light-dark(#E6D0DE,#D74853);strokeColor=#996185;gradientColor=#d5739d;" vertex="1" parent="1">
          <mxGeometry x="20" y="40" width="120" height="40" as="geometry" />
        </mxCell>
        <mxCell id="RUv8rQgGCG-P_Zp7dVRf-15" value="" style="rounded=1;whiteSpace=wrap;html=1;fillColor=light-dark(#E6D0DE,#FF5F5F);strokeColor=#996185;gradientColor=#d5739d;" vertex="1" parent="1">
          <mxGeometry x="120" y="110" width="120" height="40" as="geometry" />
        </mxCell>
        <mxCell id="RUv8rQgGCG-P_Zp7dVRf-18" value="" style="rounded=0;whiteSpace=wrap;html=1;fillColor=light-dark(#FFFFFF,#CCFFFF);" vertex="1" parent="1">
          <mxGeometry x="290" y="420" width="100" height="200" as="geometry" />
        </mxCell>
        <mxCell id="RUv8rQgGCG-P_Zp7dVRf-19" value="" style="rounded=0;whiteSpace=wrap;html=1;strokeColor=default;fillColor=light-dark(#FFFFFF,#9999FF);" vertex="1" parent="1">
          <mxGeometry x="370" y="380" width="120" height="150" as="geometry" />
        </mxCell>
        <mxCell id="RUv8rQgGCG-P_Zp7dVRf-17" value="" style="ellipse;whiteSpace=wrap;html=1;aspect=fixed;fillColor=light-dark(#FFFFFF,#A74C00);" vertex="1" parent="1">
          <mxGeometry x="400" y="450" width="50" height="50" as="geometry" />
        </mxCell>
        <mxCell id="RUv8rQgGCG-P_Zp7dVRf-22" value="" style="shape=or;whiteSpace=wrap;html=1;direction=north;fillColor=light-dark(#FFFFFF,#AB7BFF);" vertex="1" parent="1">
          <mxGeometry x="410" y="500" width="50" height="80" as="geometry" />
        </mxCell>
        <mxCell id="RUv8rQgGCG-P_Zp7dVRf-23" value="Text" style="text;html=1;whiteSpace=wrap;strokeColor=none;fillColor=none;align=center;verticalAlign=middle;rounded=0;" vertex="1" parent="1">
          <mxGeometry x="260" y="500" width="90" height="80" as="geometry" />
        </mxCell>
        <mxCell id="RUv8rQgGCG-P_Zp7dVRf-24" value="&lt;h1 style=&quot;margin-top: 0px;&quot;&gt;Heading&lt;/h1&gt;&lt;p&gt;Lorem ipsum dolor sit amet, consectetur adipisicing elit, sed do eiusmod tempor incididunt ut labore et dolore magna aliqua.&lt;/p&gt;" style="text;html=1;whiteSpace=wrap;overflow=hidden;rounded=0;" vertex="1" parent="1">
          <mxGeometry x="580" y="380" width="130" height="100" as="geometry" />
        </mxCell>
        <mxCell id="RUv8rQgGCG-P_Zp7dVRf-25" value="Text" style="text;html=1;whiteSpace=wrap;strokeColor=none;fillColor=none;align=center;verticalAlign=middle;rounded=0;" vertex="1" parent="1">
          <mxGeometry x="510" y="620" width="60" height="30" as="geometry" />
        </mxCell>
        <mxCell id="RUv8rQgGCG-P_Zp7dVRf-26" value="Text" style="text;html=1;whiteSpace=wrap;strokeColor=none;fillColor=none;align=center;verticalAlign=middle;rounded=0;" vertex="1" parent="1">
          <mxGeometry x="630" y="620" width="60" height="30" as="geometry" />
        </mxCell>
        <mxCell id="RUv8rQgGCG-P_Zp7dVRf-27" value="" style="rounded=0;whiteSpace=wrap;html=1;fillColor=none;" vertex="1" parent="1">
          <mxGeometry x="10" y="190" width="280" height="130" as="geometry" />
        </mxCell>
        <mxCell id="RUv8rQgGCG-P_Zp7dVRf-28" value="" style="rounded=0;whiteSpace=wrap;html=1;fillColor=none;" vertex="1" parent="1">
          <mxGeometry x="578" y="370" width="140" height="130" as="geometry" />
        </mxCell>
        <mxCell id="RUv8rQgGCG-P_Zp7dVRf-29" value="" style="rounded=0;whiteSpace=wrap;html=1;fillColor=none;" vertex="1" parent="1">
          <mxGeometry x="235" y="365" width="255" height="295" as="geometry" />
        </mxCell>
        <mxCell id="RUv8rQgGCG-P_Zp7dVRf-30" value="" style="rounded=0;whiteSpace=wrap;html=1;fillColor=none;" vertex="1" parent="1">
          <mxGeometry x="490" y="365" width="255" height="295" as="geometry" />
        </mxCell>
        <mxCell id="RUv8rQgGCG-P_Zp7dVRf-31" value="Фон: картинка," style="text;html=1;whiteSpace=wrap;strokeColor=none;fillColor=none;align=center;verticalAlign=middle;rounded=0;" vertex="1" parent="1">
          <mxGeometry x="10" y="670" width="80" height="40" as="geometry" />
        </mxCell>
        <mxCell id="RUv8rQgGCG-P_Zp7dVRf-32" value="" style="rounded=0;whiteSpace=wrap;html=1;" vertex="1" parent="1">
          <mxGeometry x="50" y="710" width="270" height="200" as="geometry" />
        </mxCell>
        <mxCell id="RUv8rQgGCG-P_Zp7dVRf-34" value="" style="rounded=0;whiteSpace=wrap;html=1;" vertex="1" parent="1">
          <mxGeometry x="80" y="730" width="210" height="160" as="geometry" />
        </mxCell>
        <mxCell id="RUv8rQgGCG-P_Zp7dVRf-33" value="" style="rounded=0;whiteSpace=wrap;html=1;" vertex="1" parent="1">
          <mxGeometry x="90" y="720" width="210" height="160" as="geometry" />
        </mxCell>
      </root>
    </mxGraphModel>
  </diagram>
</mxfile>
